<?xml version="1.0" encoding="UTF-8" standalone="no"?><!DOCTYPE svg PUBLIC "-//W3C//DTD SVG 1.1//EN" "http://www.w3.org/Graphics/SVG/1.1/DTD/svg11.dtd"><svg width="100%" height="100%" viewBox="0 0 2250 2250" version="1.1" xmlns="http://www.w3.org/2000/svg" xmlns:xlink="http://www.w3.org/1999/xlink" xml:space="preserve" xmlns:serif="http://www.serif.com/" style="fill-rule:evenodd;clip-rule:evenodd;stroke-miterlimit:10;"><path d="M1125,67.708l747.618,309.674l309.674,747.618l-309.674,747.618l-747.618,309.674l-747.618,-309.674l-309.674,-747.618l309.674,-747.618l747.618,-309.674Z" style="fill:#ffdf01;"/><path d="M1125,67.708l747.618,309.674l309.674,747.618l-309.674,747.618l-747.618,309.674l-747.618,-309.674l-309.674,-747.618l309.674,-747.618l747.618,-309.674Zm-0,85.69l-687.027,284.575c0,0 -284.575,687.027 -284.575,687.027c-0,0 284.575,687.027 284.575,687.027c136.416,56.505 687.027,284.575 687.027,284.575l687.027,-284.575c-0,-0 284.575,-687.027 284.575,-687.027c0,-0 -284.575,-687.027 -284.575,-687.027l-687.027,-284.575Z"/><g id="Layer1"><rect x="420.41" y="1783.63" width="1409.18" height="64.641"/><rect x="259.73" y="756.757" width="1730.54" height="64.641"/><rect x="390.86" y="413.235" width="1468.28" height="64.641"/><rect x="259.73" y="1445.65" width="1730.54" height="64.641"/><rect x="113.826" y="1092.68" width="2022.35" height="64.641"/></g><path d="M152.083,1125l250,-265.046l0,530.092l-250,-265.046Z" style="fill:#fff;"/><path d="M2097.92,1125l-250,265.046l-0,-530.092l250,265.046Z" style="fill:#fff;"/><path id="Blue-Path" serif:id="Blue Path" d="M400,1045.83l166.667,0l297.916,-652.083l520.834,1141.67l222.916,-489.584l241.667,0" style="fill:none;stroke:#1a1ce9;stroke-width:86.55px;"/><path id="Red-Path" serif:id="Red Path" d="M1850,1204.17l-166.667,-0l-297.916,652.083l-520.834,-1141.67l-222.916,489.584l-241.667,-0" style="fill:none;stroke:#e00b0f;stroke-width:86.55px;"/><path id="White-Path" serif:id="White Path" d="M400,1125l206.25,0l258.333,-566.667l520.834,1141.67l258.333,-575l206.25,0" style="fill:none;stroke:#fff;stroke-width:71.67px;"/></svg>